<svg width="16.000000" height="16.000488" viewBox="0 0 16 16.0005" fill="none" xmlns="http://www.w3.org/2000/svg" xmlns:xlink="http://www.w3.org/1999/xlink">
	<desc>
			Created with Pixso.
	</desc>
	<defs/>
	<path id="Vector" d="M8 0C3.58 0 0 3.58 0 8C0 12.41 3.58 16 8 16C12.41 16 16 12.41 16 8C16 3.58 12.41 0 8 0ZM8 14.45C4.43 14.45 1.54 11.56 1.54 8C1.54 4.43 4.43 1.54 8 1.54C11.56 1.54 14.45 4.43 14.45 8C14.45 11.56 11.56 14.45 8 14.45ZM11.46 11.19C11.15 11.5 9.99 12.52 8.1 12.52C5.44 12.52 3.57 10.54 3.57 7.96C3.57 5.4 5.51 3.46 8.08 3.46C9.87 3.46 10.94 4.32 11.23 4.58C11.29 4.64 11.34 4.73 11.35 4.82C11.36 4.91 11.34 5 11.29 5.07L10.7 5.98C10.58 6.17 10.32 6.22 10.14 6.08C9.86 5.86 9.11 5.35 8.15 5.35C6.59 5.35 5.63 6.49 5.63 7.93C5.63 9.27 6.5 10.63 8.16 10.63C9.21 10.63 9.99 10.02 10.28 9.75C10.45 9.6 10.72 9.62 10.85 9.81L11.5 10.69C11.55 10.76 11.58 10.85 11.57 10.94C11.56 11.04 11.52 11.12 11.46 11.19Z" fill="#857885" fill-opacity="1.000000" fill-rule="nonzero"/>
</svg>
